<svg xmlns="http://www.w3.org/2000/svg" viewBox="0 0 47 47" shape-rendering="crispEdges"><rect width="47" height="47" fill="#fff"/><path fill="#25231f" d="M3 3h7v1h-7zM12 3h3v1h-3zM16 3h1v1h-1zM20 3h1v1h-1zM22 3h3v1h-3zM26 3h9v1h-9zM37 3h7v1h-7zM3 4h1v1h-1zM9 4h1v1h-1zM11 4h1v1h-1zM14 4h1v1h-1zM19 4h1v1h-1zM21 4h1v1h-1zM24 4h2v1h-2zM28 4h2v1h-2zM32 4h1v1h-1zM34 4h1v1h-1zM37 4h1v1h-1zM43 4h1v1h-1zM3 5h1v1h-1zM5 5h3v1h-3zM9 5h1v1h-1zM12 5h2v1h-2zM17 5h2v1h-2zM21 5h1v1h-1zM24 5h2v1h-2zM29 5h1v1h-1zM34 5h1v1h-1zM37 5h1v1h-1zM39 5h3v1h-3zM43 5h1v1h-1zM3 6h1v1h-1zM5 6h3v1h-3zM9 6h1v1h-1zM13 6h1v1h-1zM16 6h1v1h-1zM18 6h2v1h-2zM21 6h6v1h-6zM31 6h3v1h-3zM37 6h1v1h-1zM39 6h3v1h-3zM43 6h1v1h-1zM3 7h1v1h-1zM5 7h3v1h-3zM9 7h1v1h-1zM13 7h2v1h-2zM18 7h3v1h-3zM23 7h1v1h-1zM27 7h1v1h-1zM30 7h2v1h-2zM33 7h2v1h-2zM37 7h1v1h-1zM39 7h3v1h-3zM43 7h1v1h-1zM3 8h1v1h-1zM9 8h1v1h-1zM11 8h2v1h-2zM14 8h1v1h-1zM18 8h2v1h-2zM23 8h1v1h-1zM25 8h2v1h-2zM29 8h1v1h-1zM31 8h1v1h-1zM34 8h1v1h-1zM37 8h1v1h-1zM43 8h1v1h-1zM3 9h7v1h-7zM11 9h1v1h-1zM13 9h1v1h-1zM15 9h1v1h-1zM17 9h1v1h-1zM19 9h1v1h-1zM21 9h1v1h-1zM23 9h1v1h-1zM25 9h1v1h-1zM27 9h1v1h-1zM29 9h1v1h-1zM31 9h1v1h-1zM33 9h1v1h-1zM35 9h1v1h-1zM37 9h7v1h-7zM11 10h2v1h-2zM14 10h1v1h-1zM17 10h5v1h-5zM24 10h1v1h-1zM26 10h1v1h-1zM29 10h1v1h-1zM32 10h4v1h-4zM7 11h4v1h-4zM12 11h2v1h-2zM16 11h1v1h-1zM18 11h1v1h-1zM23 11h3v1h-3zM27 11h1v1h-1zM32 11h2v1h-2zM37 11h2v1h-2zM42 11h1v1h-1zM3 12h1v1h-1zM5 12h4v1h-4zM12 12h2v1h-2zM18 12h1v1h-1zM20 12h1v1h-1zM22 12h1v1h-1zM26 12h1v1h-1zM30 12h4v1h-4zM38 12h3v1h-3zM42 12h2v1h-2zM4 13h4v1h-4zM9 13h1v1h-1zM13 13h2v1h-2zM16 13h2v1h-2zM19 13h1v1h-1zM28 13h1v1h-1zM30 13h1v1h-1zM33 13h1v1h-1zM35 13h1v1h-1zM38 13h2v1h-2zM43 13h1v1h-1zM4 14h3v1h-3zM10 14h3v1h-3zM15 14h1v1h-1zM18 14h1v1h-1zM20 14h1v1h-1zM25 14h1v1h-1zM27 14h1v1h-1zM31 14h2v1h-2zM34 14h3v1h-3zM38 14h3v1h-3zM4 15h2v1h-2zM7 15h1v1h-1zM9 15h5v1h-5zM16 15h1v1h-1zM18 15h1v1h-1zM22 15h3v1h-3zM26 15h4v1h-4zM32 15h1v1h-1zM36 15h2v1h-2zM42 15h2v1h-2zM4 16h1v1h-1zM6 16h1v1h-1zM10 16h2v1h-2zM13 16h3v1h-3zM18 16h3v1h-3zM22 16h2v1h-2zM27 16h3v1h-3zM31 16h2v1h-2zM34 16h2v1h-2zM38 16h2v1h-2zM41 16h1v1h-1zM5 17h11v1h-11zM19 17h1v1h-1zM21 17h2v1h-2zM24 17h1v1h-1zM27 17h1v1h-1zM31 17h2v1h-2zM35 17h3v1h-3zM39 17h1v1h-1zM43 17h1v1h-1zM4 18h2v1h-2zM11 18h4v1h-4zM16 18h1v1h-1zM19 18h1v1h-1zM24 18h2v1h-2zM27 18h1v1h-1zM29 18h1v1h-1zM32 18h2v1h-2zM39 18h1v1h-1zM3 19h1v1h-1zM6 19h1v1h-1zM8 19h2v1h-2zM12 19h4v1h-4zM17 19h1v1h-1zM20 19h1v1h-1zM23 19h2v1h-2zM26 19h3v1h-3zM30 19h1v1h-1zM34 19h1v1h-1zM38 19h1v1h-1zM40 19h1v1h-1zM42 19h2v1h-2zM4 20h2v1h-2zM7 20h1v1h-1zM11 20h13v1h-13zM31 20h1v1h-1zM33 20h1v1h-1zM36 20h8v1h-8zM4 21h3v1h-3zM9 21h1v1h-1zM11 21h1v1h-1zM14 21h1v1h-1zM17 21h2v1h-2zM20 21h3v1h-3zM26 21h2v1h-2zM29 21h4v1h-4zM38 21h1v1h-1zM40 21h2v1h-2zM43 21h1v1h-1zM3 22h2v1h-2zM8 22h1v1h-1zM10 22h2v1h-2zM13 22h2v1h-2zM17 22h2v1h-2zM22 22h5v1h-5zM28 22h6v1h-6zM35 22h1v1h-1zM37 22h2v1h-2zM43 22h1v1h-1zM3 23h1v1h-1zM5 23h2v1h-2zM9 23h1v1h-1zM12 23h1v1h-1zM14 23h2v1h-2zM20 23h1v1h-1zM26 23h2v1h-2zM30 23h2v1h-2zM33 23h3v1h-3zM39 23h1v1h-1zM4 24h1v1h-1zM6 24h1v1h-1zM10 24h1v1h-1zM12 24h1v1h-1zM15 24h1v1h-1zM18 24h1v1h-1zM21 24h1v1h-1zM23 24h1v1h-1zM28 24h1v1h-1zM30 24h3v1h-3zM34 24h1v1h-1zM37 24h1v1h-1zM39 24h3v1h-3zM43 24h1v1h-1zM5 25h2v1h-2zM8 25h2v1h-2zM12 25h2v1h-2zM15 25h1v1h-1zM17 25h2v1h-2zM23 25h2v1h-2zM26 25h2v1h-2zM30 25h2v1h-2zM33 25h1v1h-1zM35 25h7v1h-7zM43 25h1v1h-1zM4 26h2v1h-2zM10 26h4v1h-4zM15 26h1v1h-1zM20 26h2v1h-2zM23 26h5v1h-5zM29 26h1v1h-1zM32 26h1v1h-1zM34 26h1v1h-1zM37 26h2v1h-2zM42 26h2v1h-2zM3 27h1v1h-1zM9 27h1v1h-1zM15 27h3v1h-3zM19 27h1v1h-1zM21 27h2v1h-2zM25 27h2v1h-2zM32 27h1v1h-1zM35 27h2v1h-2zM38 27h1v1h-1zM4 28h3v1h-3zM11 28h1v1h-1zM13 28h3v1h-3zM20 28h2v1h-2zM25 28h2v1h-2zM29 28h3v1h-3zM35 28h5v1h-5zM41 28h3v1h-3zM4 29h2v1h-2zM8 29h3v1h-3zM12 29h2v1h-2zM15 29h1v1h-1zM17 29h1v1h-1zM21 29h2v1h-2zM24 29h1v1h-1zM26 29h5v1h-5zM35 29h3v1h-3zM39 29h1v1h-1zM42 29h2v1h-2zM3 30h2v1h-2zM10 30h1v1h-1zM12 30h3v1h-3zM17 30h7v1h-7zM26 30h1v1h-1zM28 30h3v1h-3zM32 30h1v1h-1zM34 30h2v1h-2zM37 30h2v1h-2zM40 30h1v1h-1zM4 31h1v1h-1zM8 31h2v1h-2zM13 31h1v1h-1zM17 31h1v1h-1zM19 31h1v1h-1zM22 31h1v1h-1zM25 31h1v1h-1zM31 31h2v1h-2zM35 31h1v1h-1zM42 31h2v1h-2zM3 32h4v1h-4zM14 32h3v1h-3zM18 32h2v1h-2zM24 32h3v1h-3zM29 32h1v1h-1zM32 32h3v1h-3zM36 32h1v1h-1zM38 32h2v1h-2zM43 32h1v1h-1zM6 33h7v1h-7zM14 33h1v1h-1zM16 33h1v1h-1zM18 33h2v1h-2zM22 33h2v1h-2zM27 33h1v1h-1zM29 33h2v1h-2zM34 33h1v1h-1zM36 33h1v1h-1zM39 33h1v1h-1zM41 33h1v1h-1zM43 33h1v1h-1zM6 34h1v1h-1zM8 34h1v1h-1zM10 34h1v1h-1zM12 34h1v1h-1zM14 34h1v1h-1zM16 34h1v1h-1zM18 34h1v1h-1zM20 34h2v1h-2zM24 34h3v1h-3zM29 34h8v1h-8zM38 34h1v1h-1zM40 34h1v1h-1zM3 35h10v1h-10zM14 35h1v1h-1zM16 35h1v1h-1zM19 35h1v1h-1zM24 35h4v1h-4zM32 35h1v1h-1zM35 35h6v1h-6zM11 36h1v1h-1zM13 36h4v1h-4zM22 36h2v1h-2zM28 36h1v1h-1zM31 36h5v1h-5zM39 36h1v1h-1zM41 36h1v1h-1zM43 36h1v1h-1zM3 37h7v1h-7zM11 37h2v1h-2zM14 37h3v1h-3zM18 37h2v1h-2zM24 37h3v1h-3zM29 37h3v1h-3zM33 37h1v1h-1zM35 37h1v1h-1zM37 37h1v1h-1zM39 37h1v1h-1zM41 37h1v1h-1zM43 37h1v1h-1zM3 38h1v1h-1zM9 38h1v1h-1zM11 38h2v1h-2zM14 38h2v1h-2zM17 38h1v1h-1zM20 38h1v1h-1zM24 38h1v1h-1zM26 38h2v1h-2zM30 38h1v1h-1zM34 38h2v1h-2zM39 38h1v1h-1zM42 38h2v1h-2zM3 39h1v1h-1zM5 39h3v1h-3zM9 39h1v1h-1zM11 39h2v1h-2zM15 39h2v1h-2zM19 39h3v1h-3zM23 39h2v1h-2zM26 39h4v1h-4zM31 39h1v1h-1zM34 39h6v1h-6zM43 39h1v1h-1zM3 40h1v1h-1zM5 40h3v1h-3zM9 40h1v1h-1zM12 40h5v1h-5zM19 40h2v1h-2zM24 40h1v1h-1zM26 40h1v1h-1zM29 40h1v1h-1zM31 40h1v1h-1zM33 40h2v1h-2zM38 40h1v1h-1zM42 40h2v1h-2zM3 41h1v1h-1zM5 41h3v1h-3zM9 41h1v1h-1zM12 41h2v1h-2zM18 41h2v1h-2zM21 41h2v1h-2zM25 41h1v1h-1zM28 41h3v1h-3zM33 41h1v1h-1zM36 41h1v1h-1zM40 41h1v1h-1zM42 41h2v1h-2zM3 42h1v1h-1zM9 42h1v1h-1zM17 42h1v1h-1zM20 42h1v1h-1zM22 42h2v1h-2zM25 42h1v1h-1zM30 42h1v1h-1zM32 42h2v1h-2zM35 42h1v1h-1zM38 42h1v1h-1zM42 42h2v1h-2zM3 43h7v1h-7zM14 43h3v1h-3zM18 43h1v1h-1zM20 43h1v1h-1zM24 43h3v1h-3zM28 43h2v1h-2zM32 43h1v1h-1zM35 43h5v1h-5zM42 43h1v1h-1z"/><rect x="18" y="18" width="11" height="11" fill="#fff"/><circle cx="23.5" cy="23.5" r="4.90" fill="#25231f" shape-rendering="geometricPrecision"/><path fill="#fff" fill-rule="evenodd" shape-rendering="geometricPrecision" transform="translate(20.683 20.683) scale(0.2348)" d="M10.99 11.92 10.28 12.85 9.78 13.87 9.53 14.81 9.48 16.00 9.67 17.07 10.06 18.03 10.66 18.97 11.35 19.72 12.23 20.40 13.23 20.96 14.63 21.45 15.90 21.67 17.22 21.70 18.49 21.53 19.87 21.12 20.97 20.57 22.48 22.91 22.40 19.44 23.20 18.42 23.70 17.40 23.94 16.46 24.00 15.28 23.81 14.20 23.42 13.24 22.82 12.30 22.13 11.56 21.02 10.73 19.65 10.07 18.85 9.82 18.02 9.66 17.22 9.58 16.26 9.58 14.74 9.80 13.23 10.32 11.96 11.06ZM19.15 13.02 19.54 13.05 19.87 13.21 20.17 13.57 20.25 13.85 20.23 14.23 20.06 14.56 19.70 14.87 19.43 14.95 19.04 14.92 18.71 14.76 18.41 14.40 18.32 14.12 18.35 13.74 18.52 13.41 18.87 13.10ZM14.08 13.02 14.47 13.05 14.80 13.21 15.10 13.57 15.18 13.85 15.15 14.23 14.99 14.56 14.63 14.87 14.36 14.95 13.97 14.92 13.64 14.76 13.34 14.40 13.25 14.12 13.28 13.74 13.45 13.41 13.80 13.10ZM16.89 4.06 15.65 2.99 14.93 2.52 13.92 2.00 13.23 1.72 12.01 1.36 10.94 1.17 10.03 1.09 8.93 1.09 7.83 1.20 6.94 1.36 5.73 1.72 5.04 2.00 3.89 2.60 2.98 3.24 2.34 3.79 1.30 5.00 0.88 5.66 0.50 6.46 0.11 7.76 0.00 8.61 0.00 9.44 0.25 10.87 0.58 11.78 0.99 12.58 1.54 13.38 2.07 13.98 3.17 14.95 2.42 17.84 5.73 16.33 6.94 16.68 8.10 16.88 7.99 16.05 8.05 14.73 8.24 13.85 8.76 12.58 9.45 11.53 10.42 10.51 11.10 9.96 11.93 9.44 12.70 9.05 13.56 8.72 14.44 8.47 15.35 8.31 16.23 8.23 17.25 8.23 18.32 8.34 18.93 8.47 18.82 7.62 18.38 6.27 17.66 5.00ZM12.29 5.86 12.76 5.88 13.14 6.08 13.47 6.43 13.64 6.87 13.61 7.34 13.42 7.73 13.06 8.06 12.62 8.23 12.15 8.20 11.77 8.00 11.44 7.65 11.27 7.21 11.30 6.74 11.49 6.35 11.85 6.02ZM6.23 5.86 6.70 5.88 7.08 6.08 7.41 6.43 7.58 6.87 7.55 7.34 7.36 7.73 7.00 8.06 6.56 8.23 6.09 8.20 5.70 8.00 5.37 7.65 5.21 7.21 5.24 6.74 5.43 6.35 5.79 6.02Z"/></svg>
